<svg version="1.1" id="Layer_1" xmlns="http://www.w3.org/2000/svg" xmlns:xlink="http://www.w3.org/1999/xlink" x="0px" y="0px"
	 width="100%" viewBox="0 0 255 313" enable-background="new 0 0 255 313" xml:space="preserve">
<path fill="#000000" opacity="1.000000" stroke="none" 
	d="
M256.000000,116.000000 
	C256.000000,182.333328 256.000000,248.166672 256.000000,314.000000 
	C171.000000,314.000000 86.000000,314.000000 1.000000,314.000000 
	C1.000000,209.666672 1.000000,105.333336 1.000000,1.000000 
	C86.000000,1.000000 171.000000,1.000000 256.000000,1.000000 
	C256.000000,39.166668 256.000000,77.333336 256.000000,116.000000 
M208.661942,108.179726 
	C198.301605,108.125717 187.941208,108.042747 177.580978,108.058113 
	C176.421051,108.059837 175.261948,108.619186 173.350479,108.872345 
	C168.054825,107.892433 167.931335,108.034630 168.069305,115.689293 
	C164.785263,126.475029 160.165985,136.076691 151.222061,143.888916 
	C141.443863,152.429855 130.525116,156.057419 118.221016,155.128265 
	C101.718674,153.882050 88.594421,146.564590 80.358223,131.413361 
	C71.356789,114.854408 72.877563,91.650337 87.553734,76.753983 
	C93.510529,70.707832 100.757324,67.450668 108.641983,63.810879 
	C112.738609,63.267708 116.835243,62.724541 120.964241,62.177082 
	C120.964241,49.469006 120.914665,37.225266 121.000542,24.982479 
	C121.020943,22.073870 120.146309,20.523418 116.206230,21.024246 
	C114.480919,21.376118 112.755608,21.727989 110.387215,21.859867 
	C103.796616,23.222548 96.906792,23.790049 90.684525,26.131523 
	C80.992874,29.778543 71.565041,34.337967 64.209015,42.057350 
	C59.356022,47.150066 53.746315,51.785591 50.007607,57.609428 
	C45.335918,64.886574 42.224117,73.167297 38.462727,81.026169 
	C32.152645,94.210175 33.155197,108.413872 34.454487,122.095581 
	C35.937141,137.708176 42.311684,151.874741 52.365120,164.425842 
	C62.170891,176.667740 74.594749,185.281067 88.708260,190.872101 
	C103.484100,196.725525 119.116417,198.345932 135.234024,195.726913 
	C152.627563,192.900574 167.782715,185.827454 180.445923,173.952637 
	C198.438965,157.079803 208.618301,136.296265 209.541092,110.896431 
	C209.352325,110.265968 209.163559,109.635506 208.661942,108.179726 
M142.149155,21.422470 
	C142.098801,34.170338 142.029282,46.918232 142.047501,59.666004 
	C142.048538,60.400860 142.763290,61.134697 143.746231,62.032051 
	C144.155472,61.978970 144.564697,61.925888 145.915283,61.978474 
	C149.397415,61.985348 152.887390,61.848289 156.359589,62.037441 
	C160.239777,62.248821 164.103821,62.756138 167.966888,64.017303 
	C167.677200,66.595016 167.121094,69.176323 167.155746,71.749672 
	C167.219055,76.450317 167.632004,81.146271 167.317276,86.358299 
	C167.899078,86.572189 168.480942,86.972778 169.062653,86.972549 
	C182.045502,86.967453 195.028320,86.918190 208.833221,86.593491 
	C208.888733,72.658905 208.880554,58.723587 209.041931,44.790230 
	C209.085388,41.038834 210.159500,37.247227 209.828979,33.557522 
	C209.458878,29.426025 212.234451,24.729063 207.088364,21.041746 
	C185.717148,21.074739 164.345947,21.107731 142.149155,21.422470 
M33.059406,201.603180 
	C33.375889,202.402481 33.692368,203.201797 34.030716,204.914413 
	C34.747688,211.456848 34.665764,218.213821 36.352680,224.495804 
	C39.580963,236.517746 45.004311,247.399673 53.209328,257.240021 
	C65.522766,272.007629 80.728172,281.628662 99.071472,286.008240 
	C110.750511,288.796661 122.665916,289.866119 134.923615,287.724487 
	C149.510956,285.175842 162.575714,279.536926 174.353363,271.054993 
	C185.530212,263.005768 194.015305,252.378708 199.883667,239.819794 
	C205.330673,228.162659 209.904190,216.272888 208.954041,202.469940 
	C208.953262,202.283646 208.952469,202.097336 208.986664,201.040314 
	C208.685593,200.721039 208.385712,200.123764 208.083267,200.122467 
	C194.803833,200.065002 181.524185,200.058182 168.244690,200.095413 
	C168.163635,200.095627 168.084549,200.797623 168.001938,202.004517 
	C167.705429,205.009491 167.408905,208.014465 166.954788,211.739273 
	C162.912766,218.691696 159.496292,226.118881 154.670822,232.476685 
	C148.600418,240.474747 139.061905,243.628174 129.151566,247.019226 
	C126.456215,247.403473 123.760857,247.787735 120.372360,248.007294 
	C119.894173,247.865784 119.424530,247.649307 118.936554,247.593628 
	C102.150177,245.678635 88.441673,238.576752 80.779701,222.981415 
	C77.882484,217.084381 77.065872,210.165146 75.100945,203.113663 
	C74.700142,202.400375 74.299332,201.687103 73.570534,200.170456 
	C60.713741,200.120468 47.856941,200.057159 35.000164,200.059586 
	C34.352509,200.059708 33.704960,200.628357 33.059406,201.603180 
z"/>
<path fill="#16103C" opacity="1.000000" stroke="none" 
	d="
M108.039467,63.901974 
	C100.757324,67.450668 93.510529,70.707832 87.553734,76.753983 
	C72.877563,91.650337 71.356789,114.854408 80.358223,131.413361 
	C88.594421,146.564590 101.718674,153.882050 118.221016,155.128265 
	C130.525116,156.057419 141.443863,152.429855 151.222061,143.888916 
	C160.165985,136.076691 164.785263,126.475029 168.288834,115.045540 
	C168.672821,113.604477 168.837265,112.807167 169.203064,111.800110 
	C169.615753,111.054779 169.827118,110.519196 170.434326,109.981430 
	C171.885712,109.987930 172.941269,109.996628 174.244354,110.205627 
	C175.664673,110.009926 176.837448,109.613922 178.337524,109.139160 
	C179.106873,109.119270 179.548950,109.178131 180.178452,109.568535 
	C185.343292,110.265152 190.316986,110.759987 195.300766,110.902359 
	C196.517883,110.937134 197.768021,109.816437 199.445847,109.146698 
	C202.574585,109.152802 205.260468,109.239204 208.003479,109.615753 
	C208.425064,110.358597 208.789490,110.811295 209.153931,111.263985 
	C208.618301,136.296265 198.438965,157.079803 180.445923,173.952637 
	C167.782715,185.827454 152.627563,192.900574 135.234024,195.726913 
	C119.116417,198.345932 103.484100,196.725525 88.708260,190.872101 
	C74.594749,185.281067 62.170891,176.667740 52.365120,164.425842 
	C42.311684,151.874741 35.937141,137.708176 34.454487,122.095581 
	C33.155197,108.413872 32.152645,94.210175 38.462727,81.026169 
	C42.224117,73.167297 45.335918,64.886574 50.007607,57.609428 
	C53.746315,51.785591 59.356022,47.150066 64.209015,42.057350 
	C71.565041,34.337967 80.992874,29.778543 90.684525,26.131523 
	C96.906792,23.790049 103.796616,23.222548 110.997437,22.173695 
	C113.409042,22.324539 115.210411,22.161558 117.351227,22.012659 
	C118.143318,22.043951 118.595970,22.061163 119.181427,22.262012 
	C119.515999,22.675173 119.745583,22.872305 120.005753,23.503376 
	C120.006653,35.973236 120.004784,47.976768 119.820938,60.109234 
	C119.406624,60.427460 119.215981,60.652126 118.625626,60.929176 
	C114.802643,61.931446 111.421051,62.916710 108.039467,63.901974 
z"/>
<path fill="#15103C" opacity="1.000000" stroke="none" 
	d="
M208.905197,203.026688 
	C209.904190,216.272888 205.330673,228.162659 199.883667,239.819794 
	C194.015305,252.378708 185.530212,263.005768 174.353363,271.054993 
	C162.575714,279.536926 149.510956,285.175842 134.923615,287.724487 
	C122.665916,289.866119 110.750511,288.796661 99.071472,286.008240 
	C80.728172,281.628662 65.522766,272.007629 53.209328,257.240021 
	C45.004311,247.399673 39.580963,236.517746 36.352680,224.495804 
	C34.665764,218.213821 34.747688,211.456848 34.428692,204.376495 
	C37.108078,203.558945 39.392765,203.015884 41.670349,203.044205 
	C52.881550,203.183533 64.090866,203.474457 75.300850,203.711868 
	C77.065872,210.165146 77.882484,217.084381 80.779701,222.981415 
	C88.441673,238.576752 102.150177,245.678635 118.936554,247.593628 
	C119.424530,247.649307 119.894173,247.865784 120.752266,248.458527 
	C124.745399,252.573090 128.471390,251.807053 129.980698,247.090546 
	C139.061905,243.628174 148.600418,240.474747 154.670822,232.476685 
	C159.496292,226.118881 162.912766,218.691696 167.385040,211.273865 
	C168.543915,209.449188 169.781204,208.130554 169.893784,206.722061 
	C170.118301,203.912872 171.389374,202.978455 174.022476,202.990753 
	C185.649841,203.045074 197.277588,203.021835 208.905197,203.026688 
M73.467766,207.497131 
	C73.467766,207.497131 73.510696,207.479156 73.467766,207.497131 
z"/>
<path fill="#6C66AC" opacity="1.000000" stroke="none" 
	d="
M144.973938,61.872814 
	C144.564697,61.925888 144.155472,61.978970 143.464905,61.644203 
	C143.192642,60.846664 143.201691,60.436970 143.298203,59.910522 
	C143.496841,59.498253 143.442566,59.233074 143.178772,58.531693 
	C143.180771,46.075768 143.226883,34.086376 143.724243,22.080452 
	C165.427826,22.075098 186.680161,22.086275 207.953903,22.559547 
	C207.963318,43.976326 207.951309,64.931015 207.477478,85.924042 
	C197.255905,85.975548 187.495590,86.050903 177.736816,85.960083 
	C175.152328,85.936035 172.572586,85.400497 169.991119,84.655563 
	C170.218384,77.408356 170.634628,70.602364 170.524994,63.804840 
	C170.500717,62.299782 168.596222,59.533199 167.595016,59.550262 
	C162.058502,59.644600 156.533585,60.420494 150.609894,60.976562 
	C148.468033,61.284462 146.720993,61.578640 144.973938,61.872814 
z"/>
<path fill="#120F2F" opacity="1.000000" stroke="none" 
	d="
M208.929626,202.748322 
	C197.277588,203.021835 185.649841,203.045074 174.022476,202.990753 
	C171.389374,202.978455 170.118301,203.912872 169.893784,206.722061 
	C169.781204,208.130554 168.543915,209.449188 167.463852,210.913956 
	C167.408905,208.014465 167.705429,205.009491 168.463486,201.504242 
	C180.365585,200.993210 191.806412,200.939484 203.246414,201.014099 
	C205.150040,201.026505 207.050018,201.597931 208.951691,201.911041 
	C208.952469,202.097336 208.953262,202.283646 208.929626,202.748322 
z"/>
<path fill="#120F2F" opacity="1.000000" stroke="none" 
	d="
M75.200897,203.412766 
	C64.090866,203.474457 52.881550,203.183533 41.670349,203.044205 
	C39.392765,203.015884 37.108078,203.558945 34.417759,203.919846 
	C33.692368,203.201797 33.375889,202.402481 33.521614,201.301514 
	C47.288723,200.991180 60.593628,200.982498 73.898529,200.973816 
	C74.299332,201.687103 74.700142,202.400375 75.200897,203.412766 
z"/>
<path fill="#9593BB" opacity="1.000000" stroke="none" 
	d="
M207.939301,85.885696 
	C207.951309,64.931015 207.963318,43.976326 207.979767,22.325264 
	C207.984207,21.628887 208.021027,21.160892 208.021027,21.160892 
	C212.234451,24.729063 209.458878,29.426025 209.828979,33.557522 
	C210.159500,37.247227 209.085388,41.038834 209.041931,44.790230 
	C208.880554,58.723587 208.888733,72.658905 208.404022,86.487503 
	C207.974838,86.381516 207.939301,85.885696 207.939301,85.885696 
z"/>
<path fill="#6A679F" opacity="1.000000" stroke="none" 
	d="
M151.004700,60.962841 
	C156.533585,60.420494 162.058502,59.644600 167.595016,59.550262 
	C168.596222,59.533199 170.500717,62.299782 170.524994,63.804840 
	C170.634628,70.602364 170.218384,77.408356 169.724350,84.735931 
	C168.937790,85.455101 168.418457,85.649643 167.899109,85.844177 
	C167.632004,81.146271 167.219055,76.450317 167.155746,71.749672 
	C167.121094,69.176323 167.677200,66.595016 167.839828,63.200798 
	C166.237228,61.925926 164.777267,61.143284 163.283157,61.071472 
	C159.198044,60.875141 155.098511,60.978291 151.004700,60.962841 
z"/>
<path fill="#242238" opacity="1.000000" stroke="none" 
	d="
M120.002914,59.980297 
	C120.004784,47.976768 120.006653,35.973236 119.879913,23.311394 
	C119.555054,22.415075 119.320824,22.223505 119.048615,22.078375 
	C118.595970,22.061163 118.143318,22.043951 117.343018,21.773167 
	C116.995354,21.519592 117.003838,21.040417 117.003838,21.040417 
	C120.146309,20.523418 121.020943,22.073870 121.000542,24.982479 
	C120.914665,37.225266 120.964241,49.469006 120.964241,62.177082 
	C116.835243,62.724541 112.738609,63.267708 108.340729,63.856426 
	C111.421051,62.916710 114.802643,61.931446 118.812248,60.808727 
	C119.676529,60.480629 119.864075,60.250301 120.002914,59.980297 
z"/>
<path fill="#7F7CA1" opacity="1.000000" stroke="none" 
	d="
M207.554688,21.101318 
	C208.021027,21.160892 207.984207,21.628887 207.958344,21.863171 
	C186.680161,22.086275 165.427826,22.075098 143.640839,21.843693 
	C143.062378,21.462553 143.018555,21.301638 142.974731,21.140724 
	C164.345947,21.107731 185.717148,21.074739 207.554688,21.101318 
z"/>
<path fill="#BEBEC3" opacity="1.000000" stroke="none" 
	d="
M208.969177,201.475677 
	C207.050018,201.597931 205.150040,201.026505 203.246414,201.014099 
	C191.806412,200.939484 180.365585,200.993210 168.464783,201.087921 
	C168.084549,200.797623 168.163635,200.095627 168.244690,200.095413 
	C181.524185,200.058182 194.803833,200.065002 208.083267,200.122467 
	C208.385712,200.123764 208.685593,200.721039 208.969177,201.475677 
z"/>
<path fill="#908EB0" opacity="1.000000" stroke="none" 
	d="
M167.608200,86.101242 
	C168.418457,85.649643 168.937790,85.455101 169.723892,85.180191 
	C172.572586,85.400497 175.152328,85.936035 177.736816,85.960083 
	C187.495590,86.050903 197.255905,85.975548 207.477478,85.924042 
	C207.939301,85.885696 207.974838,86.381516 207.992996,86.629410 
	C195.028320,86.918190 182.045502,86.967453 169.062653,86.972549 
	C168.480942,86.972778 167.899078,86.572189 167.608200,86.101242 
z"/>
<path fill="#BEBBC2" opacity="1.000000" stroke="none" 
	d="
M73.734528,200.572144 
	C60.593628,200.982498 47.288723,200.991180 33.520592,200.966080 
	C33.704960,200.628357 34.352509,200.059708 35.000164,200.059586 
	C47.856941,200.057159 60.713741,200.120468 73.734528,200.572144 
z"/>
<path fill="#D1D1EC" opacity="1.000000" stroke="none" 
	d="
M142.561951,21.281597 
	C143.018555,21.301638 143.062378,21.462553 143.189606,21.860226 
	C143.226883,34.086376 143.180771,46.075768 143.131561,58.788521 
	C143.155884,59.683678 143.183319,59.855476 143.210739,60.027279 
	C143.201691,60.436970 143.192642,60.846664 143.164734,61.562683 
	C142.763290,61.134697 142.048538,60.400860 142.047501,59.666004 
	C142.029282,46.918232 142.098801,34.170338 142.561951,21.281597 
z"/>
<path fill="#CCCCD8" opacity="1.000000" stroke="none" 
	d="
M179.991028,109.237000 
	C179.548950,109.178131 179.106873,109.119270 177.953476,109.057274 
	C176.202713,108.983307 175.163269,108.912468 174.094299,108.854614 
	C174.064758,108.867599 174.102463,108.919952 174.102463,108.919952 
	C175.261948,108.619186 176.421051,108.059837 177.580978,108.058113 
	C187.941208,108.042747 198.301605,108.125717 208.573730,108.712082 
	C208.305786,109.271500 208.126068,109.298553 207.946335,109.325607 
	C205.260468,109.239204 202.574585,109.152802 198.982056,109.072258 
	C192.047256,109.131073 186.019150,109.184036 179.991028,109.237000 
z"/>
<path fill="#2C264A" opacity="1.000000" stroke="none" 
	d="
M129.566132,247.054886 
	C128.471390,251.807053 124.745399,252.573090 121.098839,248.540878 
	C123.760857,247.787735 126.456215,247.403473 129.566132,247.054886 
z"/>
<path fill="#8785AB" opacity="1.000000" stroke="none" 
	d="
M150.609894,60.976562 
	C155.098511,60.978291 159.198044,60.875141 163.283157,61.071472 
	C164.777267,61.143284 166.237228,61.925926 167.843842,62.759476 
	C164.103821,62.756138 160.239777,62.248821 156.359589,62.037441 
	C152.887390,61.848289 149.397415,61.985348 145.444611,61.925644 
	C146.720993,61.578640 148.468033,61.284462 150.609894,60.976562 
z"/>
<path fill="#28263E" opacity="1.000000" stroke="none" 
	d="
M173.996811,110.005325 
	C172.941269,109.996628 171.885712,109.987930 170.215622,110.178986 
	C169.401291,110.922440 169.201508,111.466148 169.001724,112.009857 
	C168.837265,112.807167 168.672821,113.604477 168.321182,114.640350 
	C167.931335,108.034630 168.054825,107.892433 173.726471,108.896149 
	C174.102463,108.919952 174.064758,108.867599 174.070938,109.146294 
	C174.050339,109.618431 174.023575,109.811882 173.996811,110.005325 
z"/>
<path fill="#100C2E" opacity="1.000000" stroke="none" 
	d="
M116.605034,21.032331 
	C117.003838,21.040417 116.995354,21.519592 117.003571,21.759085 
	C115.210411,22.161558 113.409042,22.324539 111.318985,22.283691 
	C112.755608,21.727989 114.480919,21.376118 116.605034,21.032331 
z"/>
<path fill="#28263E" opacity="1.000000" stroke="none" 
	d="
M208.003479,109.615753 
	C208.126068,109.298553 208.305786,109.271500 208.730133,109.124741 
	C209.163559,109.635506 209.352325,110.265968 209.347504,111.080208 
	C208.789490,110.811295 208.425064,110.358597 208.003479,109.615753 
z"/>
<path fill="#110E2F" opacity="1.000000" stroke="none" 
	d="
M180.178452,109.568542 
	C186.019150,109.184036 192.047256,109.131073 198.539185,109.152557 
	C197.768021,109.816437 196.517883,110.937134 195.300766,110.902359 
	C190.316986,110.759987 185.343292,110.265152 180.178452,109.568542 
z"/>
<path fill="#110E2F" opacity="1.000000" stroke="none" 
	d="
M174.244354,110.205627 
	C174.023575,109.811882 174.050339,109.618431 174.100464,109.133316 
	C175.163269,108.912468 176.202713,108.983307 177.626190,109.136032 
	C176.837448,109.613922 175.664673,110.009926 174.244354,110.205627 
z"/>
<path fill="#110E2F" opacity="1.000000" stroke="none" 
	d="
M169.203064,111.800110 
	C169.201508,111.466148 169.401291,110.922440 169.819778,110.181168 
	C169.827118,110.519196 169.615753,111.054779 169.203064,111.800110 
z"/>
<path fill="#100C2E" opacity="1.000000" stroke="none" 
	d="
M119.820938,60.109234 
	C119.864075,60.250301 119.676529,60.480629 119.253647,60.791718 
	C119.215981,60.652126 119.406624,60.427460 119.820938,60.109234 
z"/>
<path fill="#100C2E" opacity="1.000000" stroke="none" 
	d="
M119.181427,22.262012 
	C119.320824,22.223505 119.555054,22.415075 119.877151,22.845066 
	C119.745583,22.872305 119.515999,22.675173 119.181427,22.262012 
z"/>
<path fill="#120F2F" opacity="1.000000" stroke="none" 
	d="
M73.489227,207.488144 
	C73.510696,207.479156 73.467766,207.497131 73.489227,207.488144 
z"/>
<path fill="#7F7CA1" opacity="1.000000" stroke="none" 
	d="
M143.298203,59.910522 
	C143.183319,59.855476 143.155884,59.683678 143.175659,59.255051 
	C143.442566,59.233074 143.496841,59.498253 143.298203,59.910522 
z"/>
</svg>